<svg width="25" height="24" viewBox="0 0 25 24" fill="none" xmlns="http://www.w3.org/2000/svg">
    <path fill-rule="evenodd" clip-rule="evenodd" d="M12.4365 0C5.80911 0 0.436523 5.37258 0.436523 12C0.436523 18.6274 5.80911 24 12.4365 24C19.0639 24 24.4365 18.6274 24.4365 12C24.4365 8.8174 23.1722 5.76516 20.9218 3.51472C18.6714 1.26428 15.6191 0 12.4365 0ZM12.4365 4.2857C14.5668 4.2857 16.2937 6.0126 16.2937 8.14284C16.2937 10.2731 14.5668 12 12.4365 12C10.3063 12 8.57938 10.2731 8.57938 8.14284C8.57709 7.11916 8.98274 6.13676 9.70659 5.41291C10.4304 4.68906 11.4128 4.28341 12.4365 4.2857ZM19.2937 19.6457C15.3998 23.1656 9.47327 23.1656 5.57938 19.6457V19.1486C5.51183 16.706 7.42341 14.6645 9.8651 14.5714H15.008C17.4373 14.669 19.3423 16.692 19.2937 19.1229V19.6457Z" fill="#555555"/>
</svg>